<svg width="22" height="22" viewBox="0 0 22 22" fill="none" xmlns="http://www.w3.org/2000/svg">
<rect width="22" height="22" fill="#F5F5F5"/>
<path d="M19.7736 10.7503C19.7736 9.99166 19.7108 9.43803 19.5749 8.86389H10.7347V12.2882H15.9237C15.8191 13.1392 15.2542 14.4208 13.9987 15.2819L13.9811 15.3966L16.7762 17.5186L16.9699 17.5375C18.7483 15.9279 19.7736 13.5595 19.7736 10.7503Z" fill="#4285F4"/>
<path d="M10.7335 19.7728C13.2757 19.7728 15.4098 18.9525 16.9687 17.5377L13.9975 15.2821C13.2025 15.8254 12.1353 16.2048 10.7335 16.2048C8.24364 16.2048 6.13039 14.5952 5.37707 12.3704L5.26665 12.3796L2.36027 14.5839L2.32227 14.6874C3.87058 17.7017 7.05095 19.7728 10.7335 19.7728Z" fill="#34A853"/>
<path d="M5.37858 12.3704C5.17981 11.7963 5.06477 11.1811 5.06477 10.5455C5.06477 9.90977 5.17981 9.29464 5.36812 8.7205L5.36285 8.59823L2.42005 6.35852L2.32376 6.4034C1.68562 7.65423 1.31946 9.05885 1.31946 10.5455C1.31946 12.0321 1.68562 13.4366 2.32376 14.6874L5.37858 12.3704Z" fill="#FBBC05"/>
<path d="M10.7336 4.88609C12.5016 4.88609 13.6942 5.63452 14.3742 6.25997L17.0315 3.71733C15.3995 2.23072 13.2757 1.31824 10.7336 1.31824C7.05098 1.31824 3.87059 3.38923 2.32227 6.40345L5.36663 8.72055C6.13041 6.49576 8.24367 4.88609 10.7336 4.88609Z" fill="#EB4335"/>
</svg>
