<svg width="91" height="91" viewBox="0 0 91 91" fill="none" xmlns="http://www.w3.org/2000/svg">
<rect x="7" y="7" width="77" height="77" rx="38.5" fill="#D1FADF"/>
<path d="M61.5417 44.0241V45.4999C61.5397 48.9592 60.4196 52.3252 58.3483 55.0958C56.2771 57.8664 53.3657 59.8933 50.0484 60.8741C46.7311 61.8549 43.1856 61.7372 39.9407 60.5383C36.6958 59.3395 33.9254 57.1239 32.0426 54.2219C30.1598 51.3199 29.2655 47.887 29.4931 44.4353C29.7207 40.9835 31.058 37.6978 33.3056 35.0682C35.5531 32.4385 38.5905 30.6059 41.9647 29.8435C45.3389 29.0812 48.8692 29.4299 52.029 30.8379M61.5417 32.6666L45.5 48.7243L40.6875 43.9118" stroke="#039855" stroke-width="3.20833" stroke-linecap="round" stroke-linejoin="round"/>
<rect x="7" y="7" width="77" height="77" rx="38.5" stroke="#ECFDF3" stroke-width="12.8333"/>
</svg>
